<?xml version="1.0" encoding="UTF-8"?> <svg xmlns="http://www.w3.org/2000/svg" width="67" height="67" viewBox="0 0 67 67" fill="none"> <path d="M48.6296 38.0884C46.226 36.6077 43.647 33.6625 40.8924 29.2526C38.1378 24.8428 36.2918 22.1063 35.3545 21.0431C33.3325 22.9239 30.4364 25.6485 26.6661 29.217C25.988 29.7863 25.1108 30.5869 24.0344 31.6188C22.9642 32.7371 22.09 33.581 21.412 34.1502C19.7883 35.5684 18.908 36.3258 18.7711 36.4224C17.9746 37.3476 17.2281 37.9652 16.5317 38.2751C15.5615 38.7782 14.906 38.6508 14.565 37.893C14.2301 37.2216 15.3443 35.7092 17.9075 33.3557C18.5917 32.8728 19.469 32.0722 20.5392 30.9539C21.7585 29.9119 22.6357 29.1113 23.1708 28.5521C23.706 27.9929 27.2771 24.6558 33.8843 18.5407C34.1458 18.1747 34.6339 17.9663 35.3487 17.9157C36.0635 17.8651 36.5761 18.0026 36.8864 18.3282C39.0286 20.1749 41.2656 23.3616 43.5974 27.8882C45.4392 31.5807 47.4648 34.8258 49.6743 37.6235C49.8295 37.7863 49.7672 37.921 49.4874 38.0277C49.2137 38.2208 48.9278 38.2411 48.6296 38.0884Z" fill="black"></path> <path d="M50.4664 50.8645C47.6109 49.2418 44.4781 45.9092 41.068 40.8666C37.6579 35.8241 35.3838 32.7014 34.2456 31.4988C32.0019 33.8018 28.7899 37.1364 24.6094 41.5028C23.8539 42.203 22.8797 43.1841 21.6869 44.4461C20.5056 45.8092 19.5372 46.8408 18.7816 47.5411C16.9753 49.2823 15.9954 50.2129 15.842 50.3327C14.9674 51.4562 14.1352 52.2163 13.3453 52.6131C12.2486 53.2496 11.4838 53.1314 11.0509 52.2586C10.6295 51.4868 11.8417 49.6593 14.6875 46.7759C15.4545 46.1768 16.4286 45.1957 17.6099 43.8326C18.9676 42.5519 19.9417 41.5708 20.5324 40.8892C21.1231 40.2077 25.0849 36.1222 32.418 28.6328C32.7019 28.1909 33.2559 27.9233 34.0802 27.8298C34.9045 27.7364 35.5045 27.8733 35.88 28.2405C38.4517 30.305 41.201 33.9372 44.128 39.137C46.4458 43.3814 48.9536 47.0922 51.6513 50.2692C51.8391 50.4528 51.7739 50.6139 51.4556 50.7524C51.1488 50.992 50.8191 51.0294 50.4664 50.8645Z" fill="black"></path> </svg> 