<?xml version="1.0" encoding="UTF-8"?> <svg xmlns="http://www.w3.org/2000/svg" width="50" height="20" viewBox="0 0 50 20" fill="none"> <path d="M1.34082 13.2553L3.89401 10.7022C6.24416 8.35201 10.0545 8.35201 12.4046 10.7022V10.7022C14.7548 13.0523 18.5651 13.0523 20.9153 10.7022V10.7022C23.2654 8.35201 27.1019 8.37811 29.452 10.7283V10.7283C31.7735 13.0498 35.5632 13.0755 37.8847 10.754V10.754C40.2463 8.39242 44.0894 8.43928 46.3928 10.8578L49.0004 13.5958" stroke="#496B44"></path> <path d="M11 1.5H39.3404C44.5871 1.5 48.8404 5.75329 48.8404 11V18.2021H1.5V11C1.5 5.7533 5.7533 1.5 11 1.5Z" stroke="#496B44"></path> </svg> 