<?xml version="1.0" encoding="UTF-8"?> <svg xmlns="http://www.w3.org/2000/svg" width="100" height="81" viewBox="0 0 100 81" fill="none"> <rect x="2" y="51.234" width="96" height="4.76596" fill="#496B44"></rect> <path d="M5.74463 43.4042L8.29782 40.8511C10.648 38.5009 14.4583 38.5009 16.8085 40.8511V40.8511C19.1586 43.2012 22.9689 43.2012 25.3191 40.8511V40.8511C27.6692 38.5009 31.4796 38.5009 33.8297 40.8511V40.8511C36.1799 43.2012 39.9902 43.2012 42.3404 40.8511V40.8511C44.6905 38.5009 48.5009 38.5009 50.851 40.8511V40.8511C53.2012 43.2012 57.0115 43.2012 59.3616 40.8511V40.8511C61.7118 38.5009 65.5221 38.5009 67.8723 40.8511V40.8511C70.2224 43.2012 74.0328 43.2012 76.3829 40.8511V40.8511C78.7331 38.5009 82.5434 38.5009 84.8936 40.8511V40.8511C87.2437 43.2012 91.0541 43.2012 93.4042 40.8511L93.9148 40.3404" stroke="#496B44"></path> <path d="M15 25.5H84C89.2467 25.5 93.5 29.7533 93.5 35V51.5H5.5V35C5.5 29.7533 9.75329 25.5 15 25.5Z" stroke="#496B44"></path> </svg> 