<?xml version="1.0" encoding="UTF-8"?> <svg xmlns="http://www.w3.org/2000/svg" width="79" height="25" viewBox="0 0 79 25" fill="none"> <path d="M6.34033 17.9999L9.23395 15.1063C11.5841 12.7562 15.3944 12.7562 17.7446 15.1063V15.1063C20.0947 17.4565 23.9051 17.4565 26.2552 15.1063V15.1063C28.6054 12.7562 32.4157 12.7562 34.7659 15.1063V15.1063C37.116 17.4565 40.9264 17.4565 43.2765 15.1063V15.1063C45.6266 12.7562 49.437 12.7562 51.7871 15.1063V15.1063C54.1373 17.4565 57.9476 17.4565 60.2978 15.1063V15.1063C62.6479 12.7562 66.4583 12.7562 68.8084 15.1063L73.0637 19.3617" stroke="#496B44"></path> <path d="M16 2.5H63.4043C68.651 2.5 72.9043 6.75329 72.9043 12V23.2872H6.5V12C6.5 6.75329 10.7533 2.5 16 2.5Z" stroke="#496B44"></path> </svg> 