<?xml version="1.0" encoding="UTF-8"?> <svg xmlns="http://www.w3.org/2000/svg" width="39" height="76" viewBox="0 0 39 76" fill="none"> <path d="M13.0965 32.5061L15.3495 24.0569H31.0438L27.7489 36.4132C26.8221 39.8891 23.6246 42.1551 20.1761 42.0397L19.781 42.0264L19.677 42.4078L12.4495 68.9093L12.3191 69.3874L12.7961 69.522L15.0889 70.1691C16.7142 70.6277 17.7221 72.2046 17.5141 73.8307L2.6525 69.6368C3.32534 68.1419 5.00884 67.3245 6.63413 67.7831L10.122 68.7674L10.6295 68.9106L10.7455 68.3962L16.8028 41.5326L16.883 41.1769L16.5688 40.9918C13.7096 39.3072 12.1999 35.8685 13.0965 32.5061ZM31.3104 23.0569H15.6161L20.8012 3.61194L35.4536 7.51906L31.3104 23.0569Z" stroke="#496B44"></path> <circle cx="23.962" cy="32.3418" r="0.5" stroke="#496B44" stroke-width="0.757003"></circle> <circle cx="26.5975" cy="29.7061" r="0.905603" stroke="#496B44"></circle> <circle cx="20.9762" cy="28.3008" r="0.5" stroke="#496B44" stroke-width="0.405603"></circle> </svg> 