<?xml version="1.0" encoding="UTF-8"?> <svg xmlns="http://www.w3.org/2000/svg" width="65" height="55" viewBox="0 0 65 55" fill="none"> <path d="M33.1614 14.569L33.4636 15.6617L34.0667 14.7017C36.7391 10.4476 41.4723 7.62165 46.8662 7.62165C55.2082 7.62165 61.9696 14.3836 61.9696 22.7251C61.9696 26.9156 60.6865 30.1901 58.3288 33.0739C55.9566 35.9756 52.4851 38.4957 48.081 41.1382C39.743 46.1409 34.5687 48.5096 28.0458 51.4956C27.7736 51.6202 27.4991 51.7459 27.2218 51.8729C21.0812 46.6618 18.6439 44.0069 15.4926 40.5744C14.8318 39.8546 14.1396 39.1006 13.3753 38.2817C9.24859 33.8603 3.5 27.0049 3.5 18.6034C3.5 10.2619 10.2613 3.5 18.6034 3.5C25.5465 3.5 31.3958 8.18584 33.1614 14.569Z" stroke="#496B44"></path> <path d="M18.9005 8.76066C16.0545 8.66253 9.95058 9.58499 8.30191 14.0599C7.64135 15.8529 7.39984 17.7372 7.39181 19.4781C7.37299 23.558 9.55918 27.196 12.0279 30.4442L13.8956 32.9018" stroke="#496B44"></path> </svg> 