<?xml version="1.0" encoding="UTF-8"?> <svg xmlns="http://www.w3.org/2000/svg" width="105" height="105" viewBox="0 0 105 105" fill="none"> <path d="M23.2078 41.6438C16.7309 47.4337 8.54646 61.0745 27.6238 69.3178L44.499 75.0002" stroke="#496B44"></path> <path d="M42.7341 38.042L43.6142 38.7567L43.5485 37.6249C43.1578 30.8953 46.1312 24.1217 52.0269 19.9228C61.1448 13.4289 73.7988 15.5564 80.2922 24.6737C84.4921 30.5708 84.3567 36.9626 83.6805 43.4481C83.5196 44.991 82.5882 47.7387 81.2375 51.0535C79.8961 54.3454 78.1688 58.1326 76.4599 61.7226C74.7515 65.3115 73.0639 68.6983 71.8032 71.1882C71.1729 72.433 70.6495 73.4534 70.2837 74.1624C70.1008 74.5168 69.9573 74.7935 69.8597 74.9814L69.7482 75.1954L69.7198 75.2499L69.7133 75.2622C68.4327 77.5565 67.1283 79.8209 65.7394 82.232C65.5229 82.6077 65.3045 82.987 65.0837 83.3705C54.3185 82.4591 49.6072 81.4588 43.519 80.166C42.2471 79.896 40.9151 79.6132 39.4553 79.3157C31.5703 77.7092 19.9827 74.7075 13.4545 65.5413C6.96111 56.424 9.08751 43.7699 18.2054 37.276C25.7945 31.871 35.8354 32.4396 42.7341 38.042Z" stroke="#496B44"></path> <path d="M48.5 35.5C49 31 52.2 22 61 22" stroke="#496B44"></path> </svg> 