<?xml version="1.0" encoding="UTF-8"?> <svg xmlns="http://www.w3.org/2000/svg" width="20" height="15" viewBox="0 0 20 15" fill="none"> <g clip-path="url(#clip0_169_429)"> <path d="M9.63866 3.29524L10.0754 4.32989L10.552 3.31297C11.1068 2.12925 12.2448 1.2436 13.6497 1.06411C15.8242 0.78631 17.801 2.30618 18.0745 4.44731C18.2139 5.53846 17.9879 6.42074 17.4659 7.24757C16.9315 8.09417 16.078 8.89664 14.9315 9.79218C12.7624 11.4866 11.3941 12.3306 9.65345 13.4041C9.64414 13.4099 9.63481 13.4156 9.62547 13.4214C7.85283 12.2713 7.09876 11.6412 6.11942 10.8228C5.90583 10.6443 5.68153 10.4569 5.43361 10.2531C4.10005 9.15723 2.33718 7.52103 2.05568 5.31769C1.78214 3.17657 3.31336 1.20851 5.4878 0.930712C7.29652 0.699634 8.97103 1.71378 9.63866 3.29524Z" stroke="#496B44"></path> </g> <defs> <clipPath id="clip0_169_429"> <rect width="20" height="15" fill="white"></rect> </clipPath> </defs> </svg> 