<?xml version="1.0" encoding="UTF-8"?> <svg xmlns="http://www.w3.org/2000/svg" width="70" height="60" viewBox="0 0 70 60" fill="none"> <path d="M34.4953 8.98128L56.1406 25.2497V56C56.1406 57.933 54.5736 59.5 52.6406 59.5H15.6406C13.7076 59.5 12.1406 57.933 12.1406 56V25.2545L34.4953 8.98128Z" stroke="#496B44"></path> <rect x="25.1406" y="28.5" width="18" height="17" stroke="#496B44"></rect> <path d="M34.9425 9.10112L34.6478 8.87836L34.3483 9.09466L11.979 25.25H1.51076L34.641 0.623007L67.7713 25.25H56.3083L34.9425 9.10112Z" stroke="#496B44"></path> <path d="M49 11V6.5C49 4.84315 50.3431 3.5 52 3.5V3.5C53.6569 3.5 55 4.84315 55 6.5V15.5" stroke="#496B44"></path> </svg> 