<?xml version="1.0" encoding="UTF-8"?> <svg xmlns="http://www.w3.org/2000/svg" width="65" height="75" viewBox="0 0 65 75" fill="none"> <path d="M62.0037 43.6636C62.0037 60.1263 48.8987 73.4564 32.7518 73.4564C16.605 73.4564 3.5 60.1263 3.5 43.6636C3.5 27.201 16.605 13.8708 32.7518 13.8708C48.8987 13.8708 62.0037 27.201 62.0037 43.6636Z" stroke="#496B44"></path> <path d="M41 6L38 2H28.009L25 6M41 6L33 16M41 6H25M33 16L25 6M33 16L30 6M33 16L36 6" stroke="#496B44" stroke-linecap="round" stroke-linejoin="round"></path> <path d="M28.0088 2L29.9998 6L32.9998 2L35.9998 6L37.9998 2" stroke="#496B44" stroke-linecap="round" stroke-linejoin="round"></path> </svg> 